{"title":"Rick and Morty Season 2 Complete 720p MKV","uid":12557729,"size":5439160212,"categoryP":"video","categoryS":"tv_shows","magnet":"?xt=urn:btih:8cdcb24c90c06fb1bf2c69485c76390aed50c3a5&amp;dn=Rick+and+Morty+Season+2+Complete+720p+MKV&amp;tr=udp%3A%2F%2Ftracker.leechers-paradise.org%3A6969&amp;tr=udp%3A%2F%2Fzer0day.ch%3A1337&amp;tr=udp%3A%2F%2Fopen.demonii.com%3A1337&amp;tr=udp%3A%2F%2Ftracker.coppersurfer.tk%3A6969&amp;tr=udp%3A%2F%2Fexodus.desync.com%3A6969","seeders":117,"leechers":27,"uploader":"ToyUp","files":10,"time":1444659858,"description":"General Info (average)\r\n\r\nFormat                                   : Matroska\r\nFormat version                           : Version 4 / Version 2\r\nFile size                                : 715 MiB\r\nDuration                                 : 22mn 48s\r\nOverall bit rate                         : 4 382 Kbps\r\nEncoded date                             : UTC 2015-07-27 04:12:16\r\n\r\n\r\nVideo\r\nID                                       : 1\r\nFormat                                   : AVC\r\nFormat/Info                              : Advanced Video Codec\r\nFormat profile                           :   \r\nFormat settings, CABAC                   : Yes\r\nFormat settings, ReFrames                : 5 frames\r\nCodec ID                                 : V_MPEG4/ISO/AVC\r\nDuration                                 : 22mn 48s\r\nBit rate                                 : 3 846 Kbps\r\nWidth                                    : 1 280 pixels\r\nHeight                                   : 720 pixels\r\nDisplay aspect ratio                     : 16:9\r\nFrame rate mode                          : Constant\r\nFrame rate                               : 23.976 fps\r\nColor space                              : YUV\r\nChroma subsampling                       : 4:2:0\r\nBit depth                                : 8 bits\r\nScan type                                : Progressive\r\nBits/(Pixel*Frame)                       : 0.174\r\nStream size                              : 628 MiB (88%)\r\nLanguage                                 : English\r\nDefault                                  : Yes\r\nForced                                   : No\r\nColor range                              : Limited\r\nMatrix coefficients                      : BT.709\r\n\r\nAudio\r\nID                                       : 2\r\nFormat                                   : AC-3\r\nFormat/Info                              : Audio Coding 3\r\nMode extension                           : CM (complete main)\r\nFormat settings, Endianness              : Big\r\nCodec ID                                 : A_AC3\r\nDuration                                 : 22mn 48s\r\nBit rate mode                            : Constant\r\nBit rate                                 : 448 Kbps\r\nChannel(s)                               : 6 channels\r\nChannel positions                        : Front: L C R, Side: L R, LFE\r\nSampling rate                            : 48.0 KHz\r\nCompression mode                         : Lossy\r\nStream size                              : 73.1 MiB (10%)\r\nDefault                                  : Yes\r\nForced                                   : No\r\n\r\nThanks and Enjoy","torrent":{"xt":"urn:btih:8cdcb24c90c06fb1bf2c69485c76390aed50c3a5","amp;dn":"Rick+and+Morty+Season+2+Complete+720p+MKV","amp;tr":["udp%3A%2F%2Ftracker.leechers-paradise.org%3A6969","udp%3A%2F%2Fzer0day.ch%3A1337","udp%3A%2F%2Fopen.demonii.com%3A1337","udp%3A%2F%2Ftracker.coppersurfer.tk%3A6969","udp%3A%2F%2Fexodus.desync.com%3A6969"],"infoHash":"8cdcb24c90c06fb1bf2c69485c76390aed50c3a5","infoHashBuffer":{"type":"Buffer","data":[140,220,178,76,144,192,111,177,191,44,105,72,92,118,57,10,237,80,195,165]},"announce":[],"urlList":[]}}